<?xml version="1.0" encoding="UTF-8"?><svg id="b" xmlns="http://www.w3.org/2000/svg" width="125.33" height="32" viewBox="0 0 125.33 32"><defs><style>.d{fill:#fff;}</style></defs><g id="c"><path class="d" d="M40,29.1v-13.74h5.77c1.75,0,3.11.3,4.07.9.96.6,1.44,1.55,1.44,2.85,0,.55-.11,1.03-.32,1.43-.21.4-.53.72-.96.96-.43.24-.95.4-1.57.47v.04c1.15.12,2.01.45,2.57,1.02.57.56.85,1.32.85,2.27,0,1.29-.48,2.25-1.43,2.86-.96.62-2.32.93-4.08.93h-6.35ZM43.79,20.87h1.82c.54,0,.99-.11,1.35-.32.35-.21.53-.54.53-.98,0-.46-.17-.8-.52-1.01-.35-.21-.8-.31-1.35-.31h-1.82v2.61ZM43.79,26.19h2.3c.55,0,1.02-.11,1.4-.34.38-.23.57-.58.57-1.07s-.19-.85-.56-1.08-.85-.35-1.41-.35h-2.3v2.85Z"/><path class="d" d="M57.03,29.33c-1.1,0-1.94-.35-2.55-1.04-.6-.69-.9-1.66-.9-2.91v-6.74h3.75v5.88c0,.67.09,1.16.27,1.46.18.3.46.45.85.45.45,0,.79-.16,1.03-.49s.35-.87.35-1.62v-5.69h3.75v10.45h-3.37l-.14-3.29.43.04c-.1,1.17-.45,2.05-1.03,2.62-.58.57-1.4.86-2.46.86Z"/><path class="d" d="M70.46,29.33c-1.17,0-2.15-.15-2.92-.45s-1.36-.72-1.76-1.25c-.4-.53-.63-1.14-.68-1.82l3.77-.1c.08.41.25.72.5.92.26.2.63.3,1.1.3.4,0,.7-.06.9-.19.2-.13.3-.32.3-.56,0-.18-.05-.33-.14-.45-.09-.12-.26-.23-.51-.32-.25-.09-.62-.17-1.11-.25-1.17-.19-2.09-.42-2.76-.68-.66-.26-1.13-.6-1.4-1.02-.27-.42-.41-.95-.41-1.6,0-1.05.42-1.88,1.26-2.51.84-.63,2.12-.94,3.85-.94,1.07,0,1.97.15,2.69.46.72.31,1.28.75,1.67,1.31.39.56.63,1.22.71,1.98l-3.72.12c-.03-.32-.1-.59-.22-.81-.12-.22-.28-.38-.47-.49-.19-.11-.43-.16-.7-.16-.36,0-.65.08-.88.24-.23.16-.34.39-.34.69,0,.19.05.36.15.48s.26.23.49.31.54.14.93.19c1.15.14,2.07.36,2.77.64.7.28,1.2.65,1.52,1.09.32.45.47.98.47,1.62,0,.7-.2,1.29-.6,1.77-.4.48-.98.85-1.73,1.1-.75.25-1.67.38-2.74.38Z"/><path class="d" d="M77.76,32v-2.65h1.51c.31,0,.54-.05.69-.14.15-.09.27-.26.36-.5l.14-.35h-.95l-3.58-9.72h3.75l1.92,6.19,1.78-6.19h3.75l-3.87,11.23c-.27.77-.64,1.32-1.11,1.65-.47.32-1.13.48-1.98.48h-2.4Z"/><path class="d" d="M88.52,29.1v-13.74h3.79v6.41l-1.61-1.1h7.3l-1.61,1.1v-6.41h3.79v13.74h-3.79v-6.48l1.61,1.08h-7.3l1.61-1.08v6.48h-3.79Z"/><path class="d" d="M105.61,29.33c-1.1,0-1.94-.35-2.55-1.04-.6-.69-.9-1.66-.9-2.91v-6.74h3.75v5.88c0,.67.09,1.16.27,1.46.18.3.46.45.85.45.45,0,.79-.16,1.03-.49s.35-.87.35-1.62v-5.69h3.75v10.45h-3.37l-.14-3.29.43.04c-.1,1.17-.45,2.05-1.03,2.62-.58.57-1.4.86-2.46.86Z"/><path class="d" d="M121.08,29.33c-.74,0-1.36-.15-1.88-.45-.52-.3-.92-.73-1.22-1.29l-.06,1.51h-3.66v-13.74h3.75v4.8c.3-.53.7-.95,1.22-1.27.52-.32,1.13-.47,1.84-.47.86,0,1.62.23,2.25.68.64.45,1.13,1.09,1.48,1.91.35.82.52,1.78.52,2.87s-.17,2.05-.52,2.87c-.35.82-.84,1.45-1.48,1.91-.64.45-1.39.68-2.25.68ZM119.8,26.64c.49,0,.89-.24,1.21-.72.32-.48.47-1.16.47-2.05s-.15-1.57-.45-2.05c-.3-.48-.71-.72-1.23-.72-.37,0-.7.11-.97.32-.27.21-.47.53-.61.94s-.2.92-.2,1.51.07,1.08.2,1.49c.14.41.34.73.61.95.27.22.59.33.97.33Z"/><path class="d" d="M5.62,2.5c0-.48-.01-.95,0-1.43C5.64.4,6.05-.01,6.65,0c.58.01.97.42.98,1.06.01.95.01,1.9,0,2.85,0,.65-.45,1.1-1.02,1.09-.56-.01-.96-.44-.98-1.07-.02-.47,0-.95,0-1.43Z"/><path class="d" d="M24.39,2.51c0-.5-.01-.99,0-1.49.02-.63.43-1.03,1.01-1.02.58,0,.98.4.99,1.05.02.97.02,1.94,0,2.91-.01.62-.45,1.05-1.01,1.04-.56,0-.97-.44-.99-1.06-.02-.47,0-.95,0-1.43Z"/><path class="d" d="M17,2.47c0,.51.02,1.03,0,1.54-.02.58-.46.99-1,.98-.54,0-.97-.42-.98-1-.02-1.01-.02-2.02,0-3.03.01-.6.43-.97,1-.97.57,0,.95.38.97.99.02.49,0,.99,0,1.48Z"/><path class="d" d="M11.13,30.91c.08-2.06,1.46-3.6,1.46-3.6-.17.75.2,1.28.2,1.28.28-2,2.36-3.08,2.36-3.08-.81,2.76.56,5.14,1.09,4.73.53-.41.59-1.02.59-1.02.35,1.22.34,2.12.14,2.77.83,0,1.66,0,2.49,0,1.16-1.29,1.82-3.5.71-7.33,0,0-.11,1.22-1.18,2.03-1.07.81-3.81-3.95-2.19-9.46,0,0-4.15,2.15-4.71,6.15,0,0-.73-1.04-.39-2.55,0,0-2.75,3.08-2.92,7.2-.07,1.78.52,3.07,1.46,3.96.35,0,.69,0,1.04,0-.11-.31-.17-.67-.15-1.09Z"/><path class="d" d="M31.99,5.09c0-1.31-.89-2.45-2.15-2.66-.78-.13-1.59-.09-2.47-.14,0,.59,0,1.08,0,1.56-.01,1.2-.82,2.06-1.94,2.09-1.12.02-1.99-.87-2.01-2.09,0-.49,0-.98,0-1.48h-5.45c0,.55,0,1.04,0,1.54-.02,1.16-.83,2.01-1.93,2.03-1.11.02-1.97-.85-1.99-2.03,0-.51,0-1.02,0-1.54h-5.45c0,.53,0,1,0,1.48-.02,1.22-.87,2.11-2,2.09-1.11-.01-1.93-.89-1.95-2.09,0-.49,0-.98,0-1.53-.65,0-1.23-.02-1.81,0C1.14,2.41.03,3.55.02,5.21c-.01,3.09-.02,6.19-.02,9.28,0,4.82.01,9.64.02,14.46,0,1.92,1.12,3.04,3.06,3.05,2.3,0,4.59,0,6.89,0-2.22-1.29-3.97-3.5-3.82-7.26.18-4.19,2.06-7.77,3.46-9.87.26,1.39.87,2.26.91,2.31l1.23,1.71.3-2.08c.63-4.37,4.1-7.42,6.24-8.92-1.16,5.81.27,11.13,2.29,13.86.81,1.09,1.66,1.66,2.48,1.66h0c.36,0,.7-.11.98-.32.61-.45,1.06-.95,1.41-1.46.74,3.74.33,6.68-1.21,8.75-.49.66-1.06,1.19-1.68,1.62,2.09,0,4.18,0,6.28,0,2.04,0,3.12-1.09,3.12-3.11v-14.51c0-3.1,0-6.19,0-9.28Z"/></g></svg>