<?xml version="1.0" encoding="UTF-8"?><svg id="b" xmlns="http://www.w3.org/2000/svg" width="150" height="109.62" viewBox="0 0 150 109.62"><defs><style>.d{fill:#fff;}</style></defs><g id="c"><path class="d" d="M0,104.51v-24.16h10.14c3.08,0,5.47.53,7.16,1.58,1.69,1.05,2.53,2.73,2.53,5.02,0,.98-.19,1.81-.56,2.52-.37.7-.94,1.26-1.68,1.68-.75.42-1.67.7-2.76.83v.07c2.02.2,3.53.8,4.52,1.79,1,.99,1.5,2.32,1.5,4,0,2.27-.84,3.95-2.52,5.04-1.68,1.09-4.07,1.63-7.18,1.63H0ZM6.67,90.05h3.2c.95,0,1.74-.19,2.36-.56.62-.37.94-.95.94-1.72,0-.82-.31-1.41-.92-1.77-.61-.36-1.41-.54-2.38-.54h-3.2v4.59ZM6.67,99.41h4.05c.98,0,1.8-.2,2.47-.6.67-.4,1-1.03,1-1.89s-.33-1.5-.99-1.91-1.49-.61-2.48-.61h-4.05v5Z"/><path class="d" d="M29.94,104.92c-1.93,0-3.42-.61-4.47-1.82-1.05-1.21-1.58-2.92-1.58-5.12v-11.84h6.6v10.34c0,1.18.16,2.04.48,2.57.32.53.82.8,1.5.8.79,0,1.39-.29,1.8-.87s.61-1.53.61-2.84v-10h6.6v18.37h-5.92l-.24-5.78.75.07c-.18,2.06-.78,3.6-1.8,4.61-1.02,1.01-2.46,1.51-4.32,1.51Z"/><path class="d" d="M53.55,104.92c-2.06,0-3.78-.27-5.14-.8s-2.39-1.26-3.1-2.19c-.7-.93-1.1-2-1.19-3.2l6.63-.17c.14.73.43,1.26.88,1.62.45.35,1.1.53,1.94.53.7,0,1.23-.11,1.58-.34.35-.23.53-.56.53-.99,0-.32-.08-.58-.24-.8-.16-.22-.46-.4-.9-.56-.44-.16-1.09-.31-1.96-.44-2.06-.34-3.68-.74-4.85-1.19-1.17-.45-1.99-1.05-2.47-1.79-.48-.74-.71-1.67-.71-2.81,0-1.84.74-3.31,2.21-4.41,1.47-1.1,3.73-1.65,6.77-1.65,1.88,0,3.46.27,4.73.82,1.27.54,2.25,1.31,2.94,2.3.69.99,1.11,2.15,1.24,3.49l-6.53.2c-.05-.57-.18-1.04-.39-1.43-.22-.39-.49-.67-.83-.87-.34-.19-.75-.29-1.22-.29-.64,0-1.15.14-1.55.43-.4.28-.6.69-.6,1.21,0,.34.09.62.26.85s.46.41.87.54.95.25,1.63.34c2.02.25,3.64.62,4.87,1.12,1.22.5,2.11,1.14,2.67,1.92.56.78.83,1.73.83,2.84,0,1.22-.35,2.26-1.05,3.11-.7.85-1.72,1.5-3.05,1.94-1.33.44-2.93.66-4.81.66Z"/><path class="d" d="M66.38,109.62v-4.66h2.65c.54,0,.95-.08,1.21-.24.26-.16.47-.45.63-.88l.24-.61h-1.67l-6.29-17.08h6.6l3.37,10.89,3.13-10.89h6.6l-6.8,19.73c-.48,1.36-1.13,2.32-1.96,2.89-.83.57-1.99.85-3.49.85h-4.22Z"/><path class="d" d="M85.29,104.51v-24.16h6.67v11.26l-2.82-1.94h12.83l-2.82,1.94v-11.26h6.67v24.16h-6.67v-11.4l2.82,1.91h-12.83l2.82-1.91v11.4h-6.67Z"/><path class="d" d="M115.33,104.92c-1.93,0-3.42-.61-4.47-1.82-1.05-1.21-1.58-2.92-1.58-5.12v-11.84h6.6v10.34c0,1.18.16,2.04.48,2.57.32.53.82.8,1.5.8.79,0,1.39-.29,1.8-.87s.61-1.53.61-2.84v-10h6.6v18.37h-5.92l-.24-5.78.75.07c-.18,2.06-.78,3.6-1.8,4.61-1.02,1.01-2.46,1.51-4.32,1.51Z"/><path class="d" d="M142.52,104.92c-1.29,0-2.39-.27-3.3-.8-.91-.53-1.62-1.29-2.14-2.26l-.1,2.65h-6.43v-24.16h6.6v8.44c.52-.93,1.24-1.67,2.14-2.23.91-.56,1.98-.83,3.23-.83,1.52,0,2.84.4,3.96,1.19,1.12.79,1.99,1.91,2.6,3.35.61,1.44.92,3.12.92,5.05s-.31,3.61-.92,5.05c-.61,1.44-1.48,2.56-2.6,3.35-1.12.79-2.44,1.19-3.96,1.19ZM140.27,100.19c.86,0,1.57-.42,2.13-1.26.56-.84.83-2.04.83-3.61s-.27-2.77-.8-3.61c-.53-.84-1.25-1.26-2.16-1.26-.66,0-1.22.19-1.7.56-.48.37-.83.92-1.07,1.65s-.36,1.61-.36,2.65.12,1.89.36,2.62c.24.73.6,1.28,1.07,1.67.48.39,1.04.58,1.7.58Z"/><path class="d" d="M54.14,5.03c0-.95-.02-1.91,0-2.86C54.19.81,55-.02,56.21,0c1.16.02,1.95.84,1.97,2.13.03,1.91.03,3.82,0,5.73-.02,1.31-.9,2.22-2.05,2.19-1.12-.02-1.93-.89-1.98-2.15-.03-.95,0-1.91,0-2.86Z"/><path class="d" d="M91.86,5.04c0-.99-.03-1.99,0-2.98.05-1.27.86-2.07,2.03-2.06,1.17.01,1.97.81,1.99,2.1.03,1.95.03,3.9,0,5.85-.02,1.24-.91,2.1-2.03,2.08-1.12-.02-1.95-.88-1.99-2.13-.03-.95,0-1.91,0-2.86Z"/><path class="d" d="M77.01,4.97c0,1.03.04,2.07,0,3.1-.05,1.16-.92,1.99-2,1.97-1.08-.02-1.94-.85-1.96-2.01-.03-2.03-.04-4.05,0-6.08.03-1.2.86-1.95,2-1.94,1.14.01,1.91.77,1.95,1.98.03.99,0,1.99,0,2.98Z"/><path class="d" d="M65.22,62.09c.17-4.14,2.93-7.23,2.93-7.23-.34,1.52.39,2.56.39,2.56.56-4.02,4.73-6.18,4.73-6.18-1.63,5.54,1.13,10.32,2.2,9.5,1.07-.82,1.18-2.04,1.18-2.04.71,2.46.69,4.25.28,5.57,1.67,0,3.34,0,5.01,0,2.33-2.59,3.65-7.04,1.43-14.72,0,0-.23,2.45-2.37,4.08-2.14,1.63-7.66-7.93-4.39-19,0,0-8.34,4.31-9.46,12.36,0,0-1.46-2.1-.79-5.13,0,0-5.52,6.18-5.86,14.46-.15,3.58,1.04,6.16,2.94,7.96.69,0,1.39,0,2.08,0-.22-.63-.34-1.35-.31-2.19Z"/><path class="d" d="M107.13,10.23c-.01-2.64-1.78-4.92-4.32-5.35-1.57-.26-3.2-.19-4.97-.27,0,1.18.01,2.16,0,3.14-.03,2.4-1.65,4.15-3.9,4.19-2.25.04-3.99-1.75-4.03-4.19-.02-.98,0-1.96,0-2.97h-10.95c0,1.1.02,2.09,0,3.09-.04,2.33-1.67,4.04-3.87,4.08-2.23.04-3.96-1.71-4-4.08-.02-1.02,0-2.04,0-3.08h-10.94c0,1.06.01,2.01,0,2.97-.04,2.45-1.75,4.23-4.02,4.2-2.23-.03-3.88-1.79-3.92-4.19-.02-.98,0-1.97,0-3.08-1.31,0-2.48-.04-3.64,0-3.4.14-5.63,2.44-5.65,5.78-.03,6.21-.05,12.43-.05,18.64,0,9.68.03,19.36.05,29.04,0,3.86,2.24,6.11,6.16,6.12,4.62,0,9.23,0,13.85,0-4.45-2.6-7.98-7.02-7.66-14.58.36-8.42,4.14-15.61,6.96-19.84.52,2.8,1.75,4.54,1.83,4.65l2.48,3.43.61-4.19c1.27-8.78,8.23-14.91,12.54-17.93-2.33,11.67.54,22.36,4.6,27.85,1.62,2.19,3.34,3.34,4.98,3.34h0c.72,0,1.4-.22,1.97-.65,1.22-.9,2.14-1.92,2.83-2.93,1.48,7.52.67,13.42-2.43,17.58-.98,1.32-2.14,2.38-3.37,3.24,4.2,0,8.41,0,12.61,0,4.1,0,6.27-2.19,6.27-6.24v-29.15c0-6.22.01-12.44-.01-18.65Z"/></g></svg>