<svg xmlns="http://www.w3.org/2000/svg" version="1.1" xmlns:xlink="http://www.w3.org/1999/xlink" width="150" height="150"><svg id="SvgjsSvg1007" xmlns="http://www.w3.org/2000/svg" width="150" height="150" viewBox="0 0 150 150"><defs><style>.d{fill:#fff;}</style></defs><g id="SvgjsG1006"><path d="M149.99,67.39v68.02c0,9.46-5.06,14.57-14.63,14.57-40.29.03-80.58.03-120.88.01-9.13-.01-14.35-5.26-14.36-14.28-.05-22.59-.11-45.18-.12-67.76,0-14.51.06-29.01.12-43.5.04-7.81,5.25-13.16,13.18-13.5,2.72-.12,5.45-.02,8.5-.02,0,2.59-.04,4.89,0,7.19.08,5.6,3.94,9.71,9.14,9.78,5.28.08,9.29-4.09,9.37-9.8.04-2.22.01-4.46.01-6.92h25.54c0,2.43-.02,4.81.01,7.2.09,5.53,4.11,9.61,9.32,9.52,5.14-.08,8.95-4.06,9.03-9.51.04-2.33,0-4.64,0-7.21h25.55c0,2.34-.04,4.63.01,6.92.09,5.7,4.15,9.89,9.41,9.79,5.25-.1,9.04-4.17,9.1-9.78.02-2.29,0-4.58,0-7.33,4.11.2,7.92.02,11.59.63,5.93,1,10.06,6.33,10.09,12.48.05,14.5.02,29.01.02,43.51Z"></path><path d="M26.33,11.73c0-2.23-.05-4.46.01-6.68C26.44,1.89,28.34-.05,31.16,0c2.7.05,4.55,1.97,4.6,4.96.06,4.45.07,8.91,0,13.36-.04,3.07-2.1,5.17-4.79,5.11-2.61-.06-4.51-2.07-4.61-5.03-.08-2.22-.02-4.45-.01-6.68Z"></path><path d="M114.35,11.77c0-2.32-.07-4.64.02-6.96.11-2.97,2.01-4.83,4.75-4.8,2.73.03,4.59,1.89,4.64,4.91.08,4.55.08,9.1,0,13.64-.05,2.89-2.13,4.9-4.74,4.86-2.62-.04-4.55-2.04-4.65-4.97-.07-2.23-.01-4.46-.01-6.68Z"></path><path d="M79.69,11.59c0,2.41.08,4.83-.02,7.23-.11,2.71-2.15,4.64-4.67,4.6-2.52-.04-4.54-1.99-4.58-4.7-.08-4.73-.09-9.46.01-14.19.06-2.79,2.02-4.56,4.67-4.53,2.67.03,4.47,1.79,4.56,4.63.08,2.32.02,4.64.02,6.96Z"></path><path class="d" d="M46.82,150h1.23c-4.45-4.2-7.22-10.22-6.88-18.59.79-19.31,13.67-33.73,13.67-33.73-1.58,7.07,1.84,11.97,1.84,11.97,2.63-18.77,22.08-28.83,22.08-28.83-7.62,25.84,5.26,48.14,10.25,44.34,4.99-3.81,5.52-9.52,5.52-9.52,5.2,17.93,2.09,28.33-3.36,34.36h14.72c2.87-2.01,5.58-4.5,7.89-7.6,7.24-9.73,9.13-23.5,5.67-41.03-1.62,2.36-3.76,4.74-6.61,6.83-1.34.99-2.94,1.51-4.61,1.51h0c-3.83,0-7.85-2.7-11.63-7.8-9.49-12.8-16.18-37.74-10.74-64.98-10.06,7.04-26.29,21.34-29.26,41.83l-1.42,9.77-5.78-8c-.19-.26-3.06-4.33-4.27-10.85-6.57,9.87-15.41,26.64-16.24,46.29-.75,17.64,7.51,27.98,17.91,34.03Z"></path><path class="d" d="M79.52,150c.96-3.07,1.01-7.26-.66-13.01,0,0-.26,2.86-2.76,4.76s-8.94-9.25-5.13-22.17c0,0-9.73,5.03-11.04,14.42,0,0-1.71-2.45-.92-5.98,0,0-6.44,7.21-6.83,16.86-.08,1.96.2,3.65.72,5.12h26.61Z"></path></g></svg><style>@media (prefers-color-scheme: light) { :root { filter: none; } }
@media (prefers-color-scheme: dark) { :root { filter: none; } }
</style></svg>